# Blender 5.0.1
# www.blender.org
mtllib diamond.mtl
o åœ†ç¯.001
v -0.146318 1.143205 -0.735589
v -0.416678 1.143205 -0.623602
v -0.623602 1.143205 -0.416678
v -0.735589 1.143205 -0.146318
v -0.735589 1.143205 0.146318
v -0.623602 1.143205 0.416678
v -0.416678 1.143205 0.623602
v -0.146318 1.143205 0.735589
v 0.146318 1.143205 0.735589
v 0.416678 1.143205 0.623602
v 0.623602 1.143205 0.416678
v 0.735589 1.143205 0.146318
v 0.735589 1.143205 -0.146318
v 0.623602 1.143205 -0.416678
v 0.416678 1.143205 -0.623602
v 0.146318 1.143205 -0.735589
v 0.000000 1.143205 -0.000000
v 0.000000 0.000000 0.000000
v 0.000000 0.929266 -1.000000
v -0.382683 0.929266 -0.923880
v -0.707107 0.929266 -0.707107
v -0.923880 0.929266 -0.382683
v -1.000000 0.929266 -0.000000
v -0.923880 0.929266 0.382683
v -0.707107 0.929266 0.707107
v -0.382683 0.929266 0.923880
v 0.000000 0.929266 1.000000
v 0.382683 0.929266 0.923880
v 0.707107 0.929266 0.707107
v 0.923880 0.929266 0.382683
v 1.000000 0.929266 -0.000000
v 0.923880 0.929266 -0.382683
v 0.707107 0.929266 -0.707107
v 0.382683 0.929266 -0.923880
vn -0.0000 1.0000 -0.0000
vn 0.1342 -0.7259 -0.6746
vn 0.3821 -0.7259 -0.5719
vn 0.5719 -0.7259 -0.3821
vn 0.6746 -0.7259 -0.1342
vn 0.6746 -0.7259 0.1342
vn 0.5719 -0.7259 0.3821
vn 0.3821 -0.7259 0.5719
vn 0.1342 -0.7259 0.6746
vn -0.1342 -0.7259 0.6746
vn -0.3821 -0.7259 0.5719
vn -0.5719 -0.7259 0.3821
vn -0.6746 -0.7259 0.1342
vn -0.6746 -0.7259 -0.1342
vn -0.5719 -0.7259 -0.3821
vn -0.3821 -0.7259 -0.5719
vn -0.1342 -0.7259 -0.6746
vn -0.5653 0.7334 -0.3777
vn -0.5811 0.7774 -0.2407
vn -0.6668 0.7334 -0.1326
vn -0.6668 0.7334 0.1326
vn -0.6290 0.7774 -0.0000
vn -0.5811 0.7774 0.2407
vn -0.5653 0.7334 0.3777
vn -0.4448 0.7774 0.4448
vn -0.3777 0.7334 0.5653
vn -0.2407 0.7774 0.5811
vn -0.1326 0.7334 0.6668
vn -0.0000 0.7774 0.6290
vn 0.1326 0.7334 0.6668
vn 0.2407 0.7774 0.5811
vn 0.3777 0.7334 0.5653
vn 0.4448 0.7774 0.4448
vn 0.5653 0.7334 0.3777
vn 0.5811 0.7774 0.2407
vn 0.6668 0.7334 0.1326
vn 0.6290 0.7774 -0.0000
vn 0.6668 0.7334 -0.1326
vn 0.5811 0.7774 -0.2407
vn 0.5653 0.7334 -0.3777
vn 0.4448 0.7774 -0.4448
vn 0.3777 0.7334 -0.5653
vn 0.2407 0.7774 -0.5811
vn 0.1326 0.7334 -0.6668
vn -0.0000 0.7774 -0.6290
vn -0.1326 0.7334 -0.6668
vn -0.2407 0.7774 -0.5811
vn -0.3777 0.7334 -0.5653
vn -0.4448 0.7774 -0.4448
vt 0.000000 0.000000
s 1
f 11/1/1 12/1/1 17/1/1
f 4/1/1 5/1/1 17/1/1
f 12/1/1 13/1/1 17/1/1
f 5/1/1 6/1/1 17/1/1
f 13/1/1 14/1/1 17/1/1
f 6/1/1 7/1/1 17/1/1
f 14/1/1 15/1/1 17/1/1
f 7/1/1 8/1/1 17/1/1
f 15/1/1 16/1/1 17/1/1
f 8/1/1 9/1/1 17/1/1
f 1/1/1 2/1/1 17/1/1
f 16/1/1 1/1/1 17/1/1
f 9/1/1 10/1/1 17/1/1
f 2/1/1 3/1/1 17/1/1
f 10/1/1 11/1/1 17/1/1
f 3/1/1 4/1/1 17/1/1
f 19/1/2 34/1/2 18/1/2
f 34/1/3 33/1/3 18/1/3
f 33/1/4 32/1/4 18/1/4
f 32/1/5 31/1/5 18/1/5
f 31/1/6 30/1/6 18/1/6
f 30/1/7 29/1/7 18/1/7
f 29/1/8 28/1/8 18/1/8
f 28/1/9 27/1/9 18/1/9
f 27/1/10 26/1/10 18/1/10
f 26/1/11 25/1/11 18/1/11
f 25/1/12 24/1/12 18/1/12
f 24/1/13 23/1/13 18/1/13
f 23/1/14 22/1/14 18/1/14
f 22/1/15 21/1/15 18/1/15
f 21/1/16 20/1/16 18/1/16
f 20/1/17 19/1/17 18/1/17
f 21/1/18 22/1/18 3/1/18
f 3/1/19 22/1/19 4/1/19
f 22/1/20 23/1/20 4/1/20
f 5/1/21 23/1/21 24/1/21
f 4/1/22 23/1/22 5/1/22
f 5/1/23 24/1/23 6/1/23
f 24/1/24 25/1/24 6/1/24
f 6/1/25 25/1/25 7/1/25
f 25/1/26 26/1/26 7/1/26
f 7/1/27 26/1/27 8/1/27
f 26/1/28 27/1/28 8/1/28
f 8/1/29 27/1/29 9/1/29
f 27/1/30 28/1/30 9/1/30
f 9/1/31 28/1/31 10/1/31
f 28/1/32 29/1/32 10/1/32
f 10/1/33 29/1/33 11/1/33
f 29/1/34 30/1/34 11/1/34
f 11/1/35 30/1/35 12/1/35
f 30/1/36 31/1/36 12/1/36
f 12/1/37 31/1/37 13/1/37
f 31/1/38 32/1/38 13/1/38
f 13/1/39 32/1/39 14/1/39
f 32/1/40 33/1/40 14/1/40
f 14/1/41 33/1/41 15/1/41
f 33/1/42 34/1/42 15/1/42
f 15/1/43 34/1/43 16/1/43
f 34/1/44 19/1/44 16/1/44
f 16/1/45 19/1/45 1/1/45
f 19/1/46 20/1/46 1/1/46
f 1/1/47 20/1/47 2/1/47
f 20/1/48 21/1/48 2/1/48
f 3/1/49 2/1/49 21/1/49
